<svg width="85" height="24" viewBox="0 0 85 24" fill="white" xmlns="http://www.w3.org/2000/svg"
  aria-hidden="true" focusable="false">
  <path
    d="M0.469655 11C0.469655 11.4821 0.595635 11.9644 0.84029 12.3796L5.27331 20.0879C5.72793 20.8744 6.41899 21.5179 7.27802 21.8056C8.06758 22.0768 8.92645 22.0639 9.70754 21.769C10.4886 21.4742 11.1433 20.9158 11.5595 20.1896L12.6294 18.3279L8.40727 11L12.8649 3.24041L13.9358 1.37959C14.2505 0.834441 14.6786 0.36388 15.191 0H8.31507C7.11004 0 5.99723 0.6435 5.39929 1.69216L0.84029 9.62134C0.596697 10.0396 0.468745 10.5155 0.469655 11ZM25.7496 11C25.7496 10.5178 25.6236 10.0347 25.3789 9.62041L20.8874 1.81041C20.4685 1.08695 19.8135 0.530974 19.0334 0.236502C18.2532 -0.05797 17.3958 -0.0728672 16.606 0.19433C15.7479 0.482163 15.0559 1.12475 14.6013 1.91216L13.5898 3.663L17.8119 11L13.3543 18.7586L12.2835 20.6204C11.9639 21.1704 11.5339 21.6361 11.0282 22H17.9041C19.1091 22 20.2219 21.3565 20.8199 20.3079L25.3789 12.3786C25.6236 11.9644 25.7496 11.4821 25.7496 11Z">
  </path>
</svg>